<svg xmlns="http://www.w3.org/2000/svg" viewBox="0 0 128 128" role="img" aria-labelledby="title">
  <title>Instagram</title>
  <defs>
    <linearGradient id="tile" x1="18" y1="12" x2="112" y2="118" gradientUnits="userSpaceOnUse">
      <stop offset="0" stop-color="#fff8e7"/>
      <stop offset=".42" stop-color="#f1d8ad"/>
      <stop offset=".72" stop-color="#b18a61"/>
      <stop offset="1" stop-color="#6f523c"/>
    </linearGradient>
    <linearGradient id="gold" x1="28" y1="20" x2="102" y2="104" gradientUnits="userSpaceOnUse">
      <stop offset="0" stop-color="#fff3c8"/>
      <stop offset=".26" stop-color="#efc77f"/>
      <stop offset=".56" stop-color="#9b6424"/>
      <stop offset=".82" stop-color="#f0c77f"/>
      <stop offset="1" stop-color="#fff0c4"/>
    </linearGradient>
    <linearGradient id="inner" x1="38" y1="34" x2="92" y2="88" gradientUnits="userSpaceOnUse">
      <stop offset="0" stop-color="#fff7e4"/>
      <stop offset=".55" stop-color="#efd1a0"/>
      <stop offset="1" stop-color="#9f744c"/>
    </linearGradient>
    <radialGradient id="shine" cx="39%" cy="25%" r="72%">
      <stop offset="0" stop-color="#fffdf4" stop-opacity=".96"/>
      <stop offset=".46" stop-color="#fff0cf" stop-opacity=".56"/>
      <stop offset="1" stop-color="#fff0cf" stop-opacity="0"/>
    </radialGradient>
    <filter id="lift" x="-20%" y="-20%" width="140%" height="145%">
      <feDropShadow dx="0" dy="5" stdDeviation="4" flood-color="#000" flood-opacity=".36"/>
      <feDropShadow dx="0" dy="0" stdDeviation="4" flood-color="#e8c088" flood-opacity=".45"/>
    </filter>
    <filter id="inset" x="-20%" y="-20%" width="140%" height="140%">
      <feDropShadow dx="0" dy="2" stdDeviation="1.1" flood-color="#5b3518" flood-opacity=".55"/>
      <feDropShadow dx="0" dy="-1" stdDeviation="1" flood-color="#fff1c9" flood-opacity=".7"/>
    </filter>
  </defs>

  <g filter="url(#lift)">
    <rect x="14" y="13" width="100" height="102" rx="27" fill="url(#tile)"/>
    <rect x="16.5" y="15.5" width="95" height="97" rx="25" fill="none" stroke="#f8dfac" stroke-width="3"/>
    <rect x="20" y="19" width="88" height="90" rx="23" fill="url(#shine)"/>
    <rect x="25" y="24" width="78" height="80" rx="20" fill="none" stroke="#7f562c" stroke-opacity=".62" stroke-width="2"/>

    <path d="M32 79c8-19 19-20 29-4-13-.2-21 3.5-29 4z" fill="#b58c66" opacity=".78"/>
    <path d="M25 90c18-12 33-8 45 6-18 2-33 0-45-6z" fill="#9d7457" opacity=".78"/>
    <path d="M31 79c8-19 19-20 29-4M25 90c18-12 33-8 45 6" fill="none" stroke="#f5d898" stroke-width="2.2"/>
    <path d="M94 31c11 15 9 30-2 48 4-18-2-32 2-48z" fill="#b58c66" opacity=".72"/>
    <path d="M103 49c9 17 4 32-11 48 6-19 1-33 11-48z" fill="#8f684f" opacity=".72"/>
    <path d="M94 31c11 15 9 30-2 48M103 49c9 17 4 32-11 48" fill="none" stroke="#f1cf8c" stroke-width="2.2"/>

    <rect x="40" y="36" width="50" height="50" rx="15" fill="url(#inner)" filter="url(#inset)"/>
    <rect x="43" y="39" width="44" height="44" rx="13" fill="none" stroke="url(#gold)" stroke-width="4.8"/>
    <circle cx="65" cy="61" r="15.8" fill="#ecd2a3" stroke="#7a4d21" stroke-width="3.4"/>
    <circle cx="65" cy="61" r="10.6" fill="url(#tile)" stroke="url(#gold)" stroke-width="3"/>
    <circle cx="82" cy="44" r="6.2" fill="#f2cd86" stroke="#7f4e22" stroke-width="2.3"/>
    <path d="M46 43c5-5 13-7 22-6" fill="none" stroke="#fff0c6" stroke-width="2" stroke-linecap="round" opacity=".88"/>
    <path d="M40 81c12 4 29 4 45-1" fill="none" stroke="#6c4727" stroke-width="1.6" stroke-linecap="round" opacity=".38"/>
  </g>
</svg>
